<svg width="70" height="70" viewBox="0 0 70 70" fill="none" xmlns="http://www.w3.org/2000/svg">
<path d="M34.9664 43.5203C34.9664 43.6218 34.9261 43.7192 34.8543 43.791C34.7825 43.8628 34.6852 43.9031 34.5836 43.9031C32.5667 43.9131 30.6067 43.2346 29.0276 41.9797C27.4485 40.7248 26.345 38.9687 25.8993 37.0016C25.8795 36.9017 25.8993 36.798 25.9543 36.7124C26.0094 36.6267 26.0955 36.5657 26.1946 36.5422C26.2441 36.531 26.2955 36.5297 26.3455 36.5385C26.3956 36.5473 26.4434 36.566 26.4862 36.5935C26.5289 36.621 26.5658 36.6567 26.5946 36.6986C26.6234 36.7405 26.6436 36.7877 26.6539 36.8375C27.062 38.633 28.07 40.2356 29.5117 41.381C30.9533 42.5264 32.7424 43.146 34.5836 43.1375C34.6852 43.1375 34.7825 43.1778 34.8543 43.2496C34.9261 43.3214 34.9664 43.4188 34.9664 43.5203ZM26.1289 36.0938C26.1793 36.0896 26.2283 36.0756 26.2732 36.0524C26.3181 36.0292 26.3579 35.9974 26.3905 35.9588C26.423 35.9202 26.4476 35.8755 26.4628 35.8273C26.4779 35.7791 26.4834 35.7284 26.4789 35.6781C26.4789 35.4484 26.4789 35.2187 26.4789 34.9781C26.4789 34.8766 26.4386 34.7792 26.3668 34.7074C26.295 34.6356 26.1977 34.5953 26.0961 34.5953C25.9946 34.5953 25.8972 34.6356 25.8254 34.7074C25.7536 34.7792 25.7133 34.8766 25.7133 34.9781C25.7133 35.2406 25.7133 35.4922 25.7133 35.7438C25.719 35.8405 25.7621 35.9311 25.8336 35.9965C25.9051 36.0619 25.9993 36.0968 26.0961 36.0938H26.1289ZM46.5164 35C46.5164 37.3601 45.8166 39.6672 44.5054 41.6295C43.1942 43.5919 41.3306 45.1213 39.1501 46.0245C36.9697 46.9276 34.5704 47.164 32.2557 46.7035C29.9409 46.2431 27.8147 45.1066 26.1459 43.4378C24.477 41.7689 23.3405 39.6427 22.8801 37.328C22.4197 35.0132 22.656 32.6139 23.5591 30.4335C24.4623 28.2531 25.9918 26.3894 27.9541 25.0782C29.9165 23.767 32.2235 23.0672 34.5836 23.0672C37.7475 23.0701 40.781 24.3282 43.0182 26.5654C45.2554 28.8026 46.5135 31.8361 46.5164 35V35ZM44.9852 35C44.9852 32.9428 44.3751 30.9317 43.2322 29.2212C42.0893 27.5107 40.4648 26.1775 38.5641 25.3902C36.6635 24.6029 34.5721 24.397 32.5544 24.7983C30.5367 25.1996 28.6833 26.1903 27.2286 27.645C25.7739 29.0997 24.7833 30.9531 24.3819 32.9708C23.9806 34.9885 24.1866 37.0799 24.9738 38.9805C25.7611 40.8811 27.0943 42.5056 28.8048 43.6486C30.5154 44.7915 32.5264 45.4016 34.5836 45.4016C37.3405 45.3958 39.9828 44.2981 41.9323 42.3486C43.8817 40.3992 44.9794 37.7569 44.9852 35V35ZM53.1774 35C53.1774 38.6775 52.0869 42.2724 50.0438 45.3301C48.0007 48.3879 45.0967 50.7711 41.6991 52.1784C38.3016 53.5857 34.563 53.9539 30.9562 53.2365C27.3493 52.519 24.0362 50.7482 21.4359 48.1478C18.8355 45.5474 17.0646 42.2343 16.3472 38.6275C15.6297 35.0206 15.9979 31.282 17.4052 27.8845C18.8126 24.4869 21.1958 21.583 24.2535 19.5399C27.3112 17.4968 30.9061 16.4063 34.5836 16.4062C39.515 16.4063 44.2444 18.3652 47.7314 21.8522C51.2184 25.3392 53.1774 30.0686 53.1774 35ZM51.6352 35C51.6352 31.6301 50.636 28.336 48.7641 25.5339C46.8921 22.7318 44.2314 20.5477 41.1183 19.2576C38.0051 17.9675 34.5794 17.6294 31.2741 18.286C27.9689 18.9426 24.9325 20.5645 22.5489 22.9466C20.1653 25.3287 18.5415 28.364 17.8827 31.6688C17.224 34.9737 17.5599 38.3996 18.8479 41.5136C20.136 44.6275 22.3185 47.2897 25.1193 49.1634C27.9202 51.0372 31.2138 52.0385 34.5836 52.0406C39.1013 52.0348 43.4323 50.2376 46.6268 47.0431C49.8213 43.8487 51.6185 39.5177 51.6243 35H51.6352ZM34.5836 20.3C34.5334 20.3 34.4836 20.3099 34.4371 20.3291C34.3907 20.3484 34.3485 20.3766 34.3129 20.4121C34.2774 20.4477 34.2492 20.4899 34.23 20.5363C34.2107 20.5828 34.2008 20.6325 34.2008 20.6828C34.2008 20.7843 34.2411 20.8817 34.3129 20.9535C34.3847 21.0253 34.4821 21.0656 34.5836 21.0656C38.2784 21.0685 41.8209 22.5375 44.4335 25.1501C47.0461 27.7627 48.5151 31.3053 48.518 35C48.518 35.1015 48.5583 35.1989 48.6301 35.2707C48.7019 35.3425 48.7993 35.3828 48.9008 35.3828C49.0023 35.3828 49.0997 35.3425 49.1715 35.2707C49.2433 35.1989 49.2836 35.1015 49.2836 35C49.2778 31.1031 47.7272 27.3675 44.9717 24.6119C42.2162 21.8564 38.4805 20.3058 34.5836 20.3V20.3ZM48.8789 35.9188C48.7791 35.9095 48.6795 35.9399 48.6018 36.0033C48.5241 36.0667 48.4744 36.1581 48.4633 36.2578C48.4633 36.5422 48.4305 36.8266 48.3649 37.1109C48.3491 37.211 48.3736 37.3132 48.4331 37.3952C48.4925 37.4772 48.5821 37.5323 48.6821 37.5484H48.8024C48.8939 37.5491 48.9824 37.516 49.051 37.4554C49.1196 37.3949 49.1635 37.3112 49.1743 37.2203C49.1743 36.925 49.2618 36.6297 49.2836 36.3344C49.2904 36.2791 49.2847 36.223 49.267 36.1703C49.2492 36.1175 49.2198 36.0694 49.181 36.0295C49.1421 35.9896 49.0948 35.9589 49.0426 35.9398C48.9903 35.9206 48.9344 35.9134 48.8789 35.9188ZM12.7852 26.075C12.8539 27.248 12.6095 28.4181 12.0771 29.4655C11.5448 30.513 10.7435 31.4001 9.7555 32.0359L10.4008 47.8078C10.4236 48.1315 10.3788 48.4564 10.2694 48.7618C10.1599 49.0673 9.98814 49.3466 9.76496 49.5822C9.54177 49.8177 9.27206 50.0042 8.97293 50.13C8.67381 50.2557 8.35181 50.3178 8.02738 50.3125C7.71161 50.3158 7.3985 50.2546 7.10722 50.1326C6.81595 50.0107 6.55267 49.8305 6.33351 49.6031C6.11435 49.3758 5.94394 49.1061 5.83273 48.8105C5.72151 48.515 5.67184 48.1998 5.68675 47.8844L6.28832 32.0906C5.31201 31.4476 4.52145 30.5598 3.99558 29.5157C3.4697 28.4716 3.22691 27.3079 3.29144 26.1406C3.29144 22.5859 5.41331 19.6875 8.02738 19.6875C10.6414 19.6875 12.7086 22.5859 12.7086 26.1078L12.7852 26.075ZM8.968 47.8953L8.33363 32.6594H7.66644L7.08675 47.9062C7.07987 48.0331 7.09967 48.1599 7.14489 48.2786C7.19011 48.3973 7.25973 48.5052 7.34925 48.5953C7.48203 48.734 7.65408 48.8287 7.84227 48.8668C8.03046 48.9048 8.2258 48.8844 8.40203 48.8082C8.57826 48.732 8.72694 48.6036 8.82812 48.4405C8.92929 48.2773 8.97811 48.087 8.968 47.8953V47.8953ZM11.3524 26.1078C11.3524 23.3516 9.86488 21.1203 8.07113 21.1203C6.27738 21.1203 4.78988 23.3078 4.78988 26.1078C4.78988 28.9078 6.27738 31.1063 8.07113 31.1063C9.86488 31.1063 11.3524 28.8641 11.3524 26.1078V26.1078ZM65.8758 22.6188V29.0172C65.9383 30.1088 65.614 31.1876 64.9598 32.0637C64.3057 32.9399 63.3636 33.5575 62.2993 33.8078L62.8789 48.0266C62.8923 48.3213 62.8458 48.6156 62.7425 48.8919C62.6391 49.1683 62.4809 49.4208 62.2774 49.6344C62.0802 49.8496 61.8402 50.0212 61.5727 50.138C61.3052 50.2548 61.0161 50.3142 60.7243 50.3125C60.4316 50.3152 60.1416 50.2573 59.8725 50.1424C59.6033 50.0276 59.3608 49.8584 59.1602 49.6453C58.958 49.433 58.8006 49.1823 58.6973 48.908C58.5939 48.6336 58.5468 48.3413 58.5586 48.0484L59.1055 33.8297C58.0512 33.5709 57.1207 32.9513 56.4754 32.0782C55.8301 31.2052 55.5107 30.1339 55.5727 29.05V22.6188C55.5727 22.2213 55.7306 21.8402 56.0116 21.5592C56.2926 21.2782 56.6737 21.1203 57.0711 21.1203H57.2133C57.411 21.1189 57.607 21.1566 57.7901 21.2312C57.9732 21.3059 58.1396 21.416 58.2799 21.5553C58.4203 21.6946 58.5316 21.8603 58.6076 22.0428C58.6836 22.2253 58.7227 22.421 58.7227 22.6188V28.0875C58.7212 28.1157 58.7255 28.1439 58.7353 28.1704C58.745 28.1969 58.7601 28.2211 58.7795 28.2416C58.799 28.262 58.8224 28.2783 58.8484 28.2895C58.8743 28.3006 58.9023 28.3063 58.9305 28.3062C58.9592 28.3062 58.9877 28.3006 59.0142 28.2896C59.0408 28.2786 59.0649 28.2625 59.0852 28.2422C59.1055 28.2219 59.1216 28.1978 59.1326 28.1712C59.1436 28.1447 59.1493 28.1162 59.1493 28.0875V22.6188C59.1493 22.2213 59.3071 21.8402 59.5881 21.5592C59.8691 21.2782 60.2503 21.1203 60.6477 21.1203H60.8336C61.0313 21.1189 61.2274 21.1566 61.4104 21.2312C61.5935 21.3059 61.76 21.416 61.9003 21.5553C62.0406 21.6946 62.1519 21.8603 62.2279 22.0428C62.3039 22.2253 62.343 22.421 62.343 22.6188V28.0875C62.3415 28.1157 62.3458 28.1439 62.3556 28.1704C62.3653 28.1969 62.3804 28.2211 62.3999 28.2416C62.4193 28.262 62.4427 28.2783 62.4687 28.2895C62.4946 28.3006 62.5226 28.3063 62.5508 28.3062C62.6088 28.3062 62.6645 28.2832 62.7055 28.2422C62.7465 28.2012 62.7696 28.1455 62.7696 28.0875V22.6188C62.7696 22.2213 62.9274 21.8402 63.2084 21.5592C63.4895 21.2782 63.8706 21.1203 64.268 21.1203H64.4102C64.8019 21.1289 65.1746 21.2905 65.4486 21.5706C65.7225 21.8507 65.8759 22.227 65.8758 22.6188V22.6188ZM61.5883 48.0594L61.0086 33.8406H60.3961L59.8493 48.0594C59.8438 48.1759 59.8624 48.2924 59.9038 48.4015C59.9452 48.5106 60.0085 48.6101 60.0899 48.6938C60.2135 48.8196 60.3724 48.9051 60.5455 48.939C60.7186 48.973 60.898 48.9538 61.06 48.884C61.222 48.8142 61.3592 48.6971 61.4535 48.548C61.5478 48.3989 61.5948 48.2247 61.5883 48.0484V48.0594ZM64.5852 22.6188C64.5852 22.5905 64.5795 22.5626 64.5684 22.5366C64.5573 22.5107 64.541 22.4872 64.5205 22.4678C64.5 22.4484 64.4758 22.4333 64.4493 22.4235C64.4228 22.4137 64.3946 22.4095 64.3664 22.4109H64.2243C64.1965 22.4094 64.1688 22.4136 64.1429 22.4235C64.117 22.4334 64.0934 22.4487 64.0738 22.4683C64.0542 22.4879 64.0389 22.5115 64.029 22.5374C64.0191 22.5633 64.0149 22.591 64.0164 22.6188V28.0875C64.0342 28.2958 64.0085 28.5055 63.941 28.7033C63.8735 28.9011 63.7657 29.0828 63.6243 29.2368C63.4829 29.3907 63.3111 29.5137 63.1197 29.5977C62.9283 29.6818 62.7216 29.7252 62.5125 29.7252C62.3035 29.7252 62.0967 29.6818 61.9054 29.5977C61.714 29.5137 61.5422 29.3907 61.4008 29.2368C61.2594 29.0828 61.1515 28.9011 61.084 28.7033C61.0165 28.5055 60.9908 28.2958 61.0086 28.0875V22.6188C61.0087 22.5905 61.0029 22.5626 60.9918 22.5366C60.9807 22.5107 60.9644 22.4872 60.9439 22.4678C60.9235 22.4484 60.8993 22.4333 60.8728 22.4235C60.8463 22.4137 60.8181 22.4095 60.7899 22.4109H60.6477C60.5926 22.4109 60.5397 22.4328 60.5007 22.4718C60.4618 22.5108 60.4399 22.5636 60.4399 22.6188V28.0875C60.4577 28.2958 60.432 28.5055 60.3645 28.7033C60.297 28.9011 60.1891 29.0828 60.0477 29.2368C59.9063 29.3907 59.7345 29.5137 59.5431 29.5977C59.3518 29.6818 59.145 29.7252 58.936 29.7252C58.7269 29.7252 58.5202 29.6818 58.3288 29.5977C58.1374 29.5137 57.9656 29.3907 57.8242 29.2368C57.6828 29.0828 57.575 28.9011 57.5075 28.7033C57.44 28.5055 57.4143 28.2958 57.4321 28.0875V22.6188C57.4321 22.5905 57.4264 22.5626 57.4153 22.5366C57.4041 22.5107 57.3879 22.4872 57.3674 22.4678C57.3469 22.4484 57.3227 22.4333 57.2962 22.4235C57.2697 22.4137 57.2415 22.4095 57.2133 22.4109H57.0711C57.016 22.4109 56.9632 22.4328 56.9242 22.4718C56.8852 22.5108 56.8633 22.5636 56.8633 22.6188V29.0172C56.8633 30.975 58.1211 32.5609 59.6743 32.5609H61.7633C63.3164 32.5609 64.5852 30.975 64.5852 29.0172V22.6188Z" fill="#B0B3CE"/>
</svg>
